<svg id="Layer_1" xmlns="http://www.w3.org/2000/svg" viewBox="0 0 628.5 627.35">
  <defs>
    <style>
      .cls-1 {
        fill: #00a20d;
      }
    </style>
  </defs>
  <polygon class="cls-1" points="628.5 579.59 544.01 464.51 533.56 442.64 551.27 442.64 565.23 442.64 474.67 319.31 471.98 313.67 484.8 313.67 514.06 313.67 435.85 207.16 445.06 207.16 474.31 207.16 314.25 0 154.19 207.16 183.44 207.16 192.65 207.16 114.44 313.67 143.7 313.67 156.52 313.67 153.83 319.31 63.27 442.64 77.23 442.64 94.94 442.64 84.49 464.51 0 579.59 29.55 579.59 6.74 627.35 6.99 627.35 621.51 627.35 621.76 627.35 598.95 579.59 628.5 579.59"/>
</svg>